<?xml version="1.0" encoding="iso-8859-1"?>
<!-- Generator: Adobe Illustrator 19.0.0, SVG Export Plug-In . SVG Version: 6.00 Build 0)  -->
<svg version="1.1" id="Layer_1" xmlns="http://www.w3.org/2000/svg" xmlns:xlink="http://www.w3.org/1999/xlink" x="0px" y="0px"
	 viewBox="0 0 512.001 512.001" style="enable-background:new 0 0 512.001 512.001;" xml:space="preserve">
<g>
	<path style="fill:#20272E;" d="M65.658,422.803c-4.035,0-7.663-2.809-8.545-6.914l-5.499-25.606
		c-6.031-28.085,10.955-55.996,38.671-63.543l16.883-4.596c4.657-1.267,9.47,1.482,10.739,6.144
		c1.269,4.663-1.482,9.471-6.144,10.741l-16.881,4.595c-18.748,5.105-30.24,23.987-26.159,42.986l5.499,25.606
		c1.014,4.725-1.993,9.377-6.717,10.392C66.884,422.739,66.267,422.803,65.658,422.803z"/>
	<path style="fill:#20272E;" d="M17.152,338.958c-0.352,0-0.707-0.022-1.065-0.065c-4.797-0.582-8.214-4.943-7.632-9.74
		l3.156-25.999c3.461-28.516,28.651-49.362,57.283-47.451l17.457,1.162c4.821,0.321,8.47,4.49,8.148,9.31
		c-0.321,4.821-4.512,8.461-9.31,8.148l-17.457-1.162c-19.394-1.284-36.411,12.81-38.751,32.1l-3.156,25.999
		C25.288,335.701,21.514,338.958,17.152,338.958z"/>
	<path style="fill:#20272E;" d="M8.742,235.468c-1.409,0-2.839-0.341-4.163-1.06c-4.249-2.304-5.822-7.615-3.518-11.863
		l12.489-23.02c13.699-25.249,44.764-35.386,70.715-23.075l15.808,7.496c4.365,2.071,6.227,7.289,4.156,11.654
		c-2.068,4.366-7.286,6.226-11.654,4.156l-15.808-7.496c-17.559-8.328-38.57-1.47-47.837,15.61l-12.489,23.02
		C14.856,233.81,11.849,235.468,8.742,235.468z"/>
	<path style="fill:#20272E;" d="M145.519,139.397c-2.697,0-5.356-1.241-7.069-3.585l-10.328-14.121
		c-11.469-15.686-33.208-19.67-49.495-9.068l-21.949,14.288c-4.044,2.636-9.467,1.491-12.105-2.558
		c-2.636-4.049-1.491-9.469,2.558-12.105l21.948-14.289c24.073-15.672,56.213-9.785,73.167,13.404l10.328,14.121
		c2.852,3.901,2.003,9.375-1.898,12.227C149.119,138.848,147.311,139.397,145.519,139.397z"/>
	<path style="fill:#20272E;" d="M446.342,422.803c-0.609,0-1.227-0.064-1.847-0.196c-4.725-1.015-7.731-5.667-6.717-10.392
		l5.499-25.606c4.081-18.999-7.411-37.881-26.16-42.986l-16.879-4.595c-4.663-1.269-7.414-6.078-6.144-10.741
		c1.269-4.663,6.081-7.41,10.739-6.144l16.88,4.595c27.718,7.547,44.704,35.459,38.672,63.544l-5.499,25.606
		C454.005,419.994,450.377,422.803,446.342,422.803z"/>
	<path style="fill:#20272E;" d="M494.847,338.958c-4.361,0-8.136-3.257-8.675-7.697l-3.154-25.999
		c-2.341-19.29-19.352-33.395-38.752-32.1l-17.457,1.162c-4.81,0.316-8.99-3.327-9.31-8.148s3.328-8.991,8.148-9.31l17.457-1.162
		c28.67-1.902,53.825,18.936,57.284,47.453l3.154,25.999c0.582,4.797-2.835,9.158-7.632,9.74
		C495.554,338.937,495.198,338.958,494.847,338.958z"/>
	<path style="fill:#20272E;" d="M503.258,235.468c-3.105,0-6.113-1.657-7.698-4.579l-12.489-23.02
		c-9.267-17.081-30.283-23.937-47.839-15.61l-15.807,7.496c-4.368,2.07-9.586,0.21-11.654-4.156
		c-2.071-4.366-0.21-9.583,4.156-11.654l15.807-7.496c25.949-12.311,57.016-2.176,70.716,23.075l12.489,23.02
		c2.305,4.247,0.73,9.559-3.518,11.863C506.096,235.126,504.667,235.468,503.258,235.468z"/>
	<path style="fill:#20272E;" d="M366.482,139.397c-1.792,0-3.6-0.548-5.157-1.687c-3.901-2.852-4.75-8.326-1.898-12.227
		l10.326-14.121c16.954-23.187,49.093-29.077,73.168-13.404l21.948,14.289c4.05,2.636,5.195,8.056,2.558,12.105
		c-2.639,4.05-8.055,5.195-12.105,2.558l-21.948-14.289c-16.282-10.599-38.028-6.619-49.497,9.067l-10.326,14.121
		C371.837,138.155,369.178,139.397,366.482,139.397z"/>
</g>
<path style="fill:#5A595C;" d="M280.829,102.917h-49.659c-80.832,0-146.359,65.527-146.359,146.359l0,0
	c0,80.832,65.527,146.359,146.359,146.359h49.658c80.833,0,146.36-65.527,146.36-146.359l0,0
	C427.188,168.444,361.661,102.917,280.829,102.917z"/>
<g>
	<circle style="fill:#20272E;" cx="178.089" cy="263.796" r="14.579"/>
	<circle style="fill:#20272E;" cx="333.907" cy="263.796" r="14.579"/>
	<path style="fill:#20272E;" d="M307.329,291.819c0,28.349-22.981,51.329-51.329,51.329s-51.329-22.981-51.329-51.329
		L307.329,291.819L307.329,291.819z"/>
</g>
<g>
	<path style="fill:#FFFFFF;" d="M226.219,291.819v13.629c0,4.832,3.916,8.749,8.749,8.749s8.749-3.917,8.749-8.749v-13.629H226.219z
		"/>
	<path style="fill:#FFFFFF;" d="M268.282,291.819v13.629c0,4.832,3.916,8.749,8.749,8.749s8.749-3.917,8.749-8.749v-13.629H268.282z
		"/>
</g>
<path style="opacity:0.3;fill:#20272E;enable-background:new    ;" d="M510.94,222.544l-12.489-23.02
	c-13.7-25.25-44.767-35.386-70.716-23.075l-15.807,7.496c-0.028,0.013-0.054,0.03-0.082,0.044
	c-9.298-18.623-22.445-34.987-38.405-48.045c0.035-0.047,0.076-0.086,0.111-0.134l10.326-14.121
	c11.47-15.686,33.216-19.667,49.497-9.067l21.948,14.289c4.05,2.636,9.467,1.492,12.105-2.558c2.636-4.049,1.491-9.469-2.558-12.105
	l-21.948-14.289c-24.076-15.673-56.215-9.784-73.168,13.404l-10.326,14.121c-0.053,0.072-0.094,0.147-0.145,0.22
	c-22.676-14.426-49.587-22.787-78.453-22.787h-24.829v292.719h24.829c47.608,0,89.898-22.736,116.628-57.936
	c0.821,0.587,1.751,1.048,2.781,1.329l16.879,4.595c18.749,5.105,30.241,23.987,26.16,42.986l-5.499,25.606
	c-1.014,4.725,1.993,9.377,6.717,10.392c0.619,0.133,1.238,0.196,1.847,0.196c4.035,0,7.663-2.809,8.545-6.914l5.499-25.606
	c6.032-28.085-10.955-55.996-38.672-63.544l-14.336-3.903c8.591-14.747,14.675-31.131,17.676-48.571
	c0.572,0.077,1.158,0.099,1.755,0.061l17.457-1.162c19.4-1.295,36.411,12.81,38.752,32.1l3.154,25.999
	c0.539,4.439,4.313,7.697,8.675,7.697c0.352,0,0.707-0.022,1.065-0.065c4.797-0.582,8.214-4.943,7.632-9.74l-3.154-25.999
	c-3.46-28.517-28.615-49.354-57.284-47.453l-16.104,1.072c0.125-2.484,0.189-4.984,0.189-7.499l0,0c0-17.269-3-33.836-8.491-49.219
	c0.244-0.09,0.488-0.188,0.729-0.301l15.807-7.496c17.556-8.327,38.57-1.471,47.839,15.61l12.489,23.02
	c1.584,2.921,4.593,4.579,7.698,4.579c1.409,0,2.839-0.341,4.163-1.06C511.67,232.103,513.244,226.791,510.94,222.544z"/>
<g>
</g>
<g>
</g>
<g>
</g>
<g>
</g>
<g>
</g>
<g>
</g>
<g>
</g>
<g>
</g>
<g>
</g>
<g>
</g>
<g>
</g>
<g>
</g>
<g>
</g>
<g>
</g>
<g>
</g>
</svg>
